<svg width="47" height="49" viewBox="0 0 47 49" fill="none" xmlns="http://www.w3.org/2000/svg">
<g filter="url(#filter0_d_85_456)">
<path d="M23.8091 2.48242C19.6298 2.48242 16.229 5.38428 16.229 8.9514C16.229 10.1997 16.6463 11.4113 17.4361 12.4554C18.1758 13.4328 19.2053 14.2196 20.42 14.7381V15.1757H19.9563C19.8155 15.1757 19.7012 15.2728 19.7012 15.3934C19.7012 15.5136 19.8155 15.6111 19.9563 15.6111H20.42V19.4765C20.42 19.5966 20.5343 19.6941 20.6751 19.6941H22.0281V20.5096C22.0281 20.6298 22.1424 20.7273 22.2832 20.7273H25.336C25.4768 20.7273 25.5911 20.6298 25.5911 20.5096V19.6941H26.9436C27.0844 19.6941 27.1987 19.5966 27.1987 19.4765V18.3401H27.6624C27.8037 18.3401 27.9175 18.2426 27.9175 18.1224C27.9175 18.0022 27.8037 17.9047 27.6624 17.9047H27.1987V17.0148H27.6624C27.8037 17.0148 27.9175 16.9172 27.9175 16.7971C27.9175 16.6769 27.8037 16.5794 27.6624 16.5794H27.1987V15.6111H27.6624C27.8037 15.6111 27.9175 15.5136 27.9175 15.3934C27.9175 15.2728 27.8037 15.1757 27.6624 15.1757H27.1987V14.7381C28.4147 14.2188 29.4452 13.4304 30.1826 12.4554C30.9724 11.4113 31.3897 10.1997 31.3897 8.9514C31.3897 5.38428 27.9889 2.48242 23.8091 2.48242ZM25.081 20.2919H22.5383V19.6941H25.081V20.2919ZM26.6885 16.5794H23.1173C22.9765 16.5794 22.8622 16.6769 22.8622 16.7971C22.8622 16.9172 22.9765 17.0148 23.1173 17.0148H26.6885V17.9047H23.1173C22.9765 17.9047 22.8622 18.0022 22.8622 18.1224C22.8622 18.2426 22.9765 18.3401 23.1173 18.3401H26.6885V19.2588H20.9302V15.6111H26.6885V16.5794ZM22.7235 10.3394H21.4001V9.96934C21.4001 9.65804 21.697 9.40464 22.0618 9.40464C22.4265 9.40464 22.7235 9.65804 22.7235 9.96934V10.3394ZM23.2336 15.1757V10.7748H24.3846V15.1757H23.2336ZM26.8344 14.4064C26.8293 14.4085 26.8252 14.4116 26.8206 14.4138C26.812 14.4177 26.8033 14.4216 26.7956 14.4264C26.789 14.4303 26.7834 14.4351 26.7773 14.4395C26.7706 14.4443 26.7645 14.4486 26.7584 14.4538C26.7528 14.4591 26.7482 14.4647 26.7431 14.4704C26.738 14.4756 26.7329 14.4813 26.7283 14.4874C26.7242 14.493 26.7206 14.4991 26.7171 14.5052C26.709 14.5176 26.703 14.531 26.6992 14.5448C26.6967 14.5514 26.6946 14.5579 26.6931 14.5649C26.6916 14.5727 26.691 14.581 26.69 14.5888C26.69 14.5936 26.6885 14.5984 26.6885 14.6032V15.1757H24.8947V10.7748H26.4732C26.614 10.7748 26.7283 10.6773 26.7283 10.5571V9.96934C26.7283 9.4177 26.2028 8.96926 25.5564 8.96926C24.91 8.96926 24.3846 9.4177 24.3846 9.96934V10.3394H23.2336V9.96934C23.2336 9.4177 22.7082 8.96926 22.0618 8.96926C21.4154 8.96926 20.8899 9.4177 20.8899 9.96934V10.5571C20.8899 10.6773 21.0042 10.7748 21.145 10.7748H22.7235V15.1757H20.9302V14.6032C20.9302 14.5979 20.9292 14.5932 20.9287 14.5884C20.9277 14.5805 20.9277 14.5727 20.9256 14.5653C20.9241 14.5579 20.9221 14.5509 20.9195 14.544C20.9175 14.5374 20.9154 14.5313 20.9124 14.5248C20.9093 14.5178 20.9052 14.5113 20.9016 14.5048C20.8981 14.4987 20.8945 14.493 20.8904 14.4874C20.8858 14.4813 20.8807 14.4756 20.8756 14.4699C20.8705 14.4647 20.8659 14.4591 20.8603 14.4543C20.8542 14.4486 20.8476 14.4438 20.8414 14.439C20.8353 14.4347 20.8297 14.4303 20.8231 14.4264C20.8154 14.4216 20.8068 14.4177 20.7981 14.4133C20.7935 14.4112 20.7894 14.4085 20.7843 14.4064C18.3268 13.4124 16.7392 11.2711 16.7392 8.9514C16.7392 5.62461 19.9109 2.91781 23.8091 2.91781C27.7078 2.91781 30.8795 5.62461 30.8795 8.9514C30.8795 11.2711 29.2914 13.4124 26.8344 14.4064ZM24.8947 10.3394V9.96934C24.8947 9.65804 25.1917 9.40464 25.5564 9.40464C25.9212 9.40464 26.2181 9.65804 26.2181 9.96934V10.3394H24.8947Z" fill="#23130D"/>
<path d="M22.5488 19.6953H25.0702V20.2812H22.5488V19.6953Z" fill="#636368"/>
<path opacity="0.2" d="M22.5488 19.6953H23.6294V20.2812H22.5488V19.6953Z" fill="#23130D"/>
<path d="M22.8779 16.8012C22.8779 16.9207 22.9923 17.0177 23.1332 17.0177H26.7074V17.9025H23.1332C22.9923 17.9025 22.8779 17.9994 22.8779 18.1189C22.8779 18.2384 22.9923 18.3354 23.1332 18.3354H26.7074V19.2487H20.9443V15.6221H26.7074V16.5848H23.1332C22.9923 16.5848 22.8779 16.6818 22.8779 16.8012Z" fill="#E1E1E5"/>
<path d="M23.2346 10.7734H24.3845V15.1771H23.2346V10.7734ZM22.7249 9.9674V10.3377H21.4028V9.9674C21.4028 9.6559 21.6995 9.40234 22.0639 9.40234C22.4283 9.40234 22.7249 9.6559 22.7249 9.9674ZM26.2163 9.9674V10.3377H24.8942V9.9674C24.8942 9.6559 25.1908 9.40234 25.5552 9.40234C25.9196 9.40234 26.2163 9.6559 26.2163 9.9674Z" fill="#69C0E7"/>
<path d="M30.9274 8.97548C30.9274 11.2932 29.335 13.4325 26.8714 14.4256C26.8663 14.4278 26.8622 14.4308 26.8576 14.433C26.8489 14.4369 26.8402 14.4408 26.8325 14.4456C26.8259 14.4495 26.8202 14.4543 26.8141 14.4586C26.8074 14.4634 26.8013 14.4678 26.7952 14.473C26.7895 14.4782 26.7849 14.4839 26.7798 14.4895C26.7747 14.4947 26.7696 14.5004 26.765 14.5065C26.7609 14.5121 26.7573 14.5182 26.7537 14.5243C26.7456 14.5367 26.7396 14.5501 26.7358 14.5639C26.7333 14.5704 26.7312 14.577 26.7297 14.5839C26.7282 14.5918 26.7276 14.6 26.7266 14.6078C26.7266 14.6126 26.7251 14.6174 26.7251 14.6222V15.1942H24.9265V10.7973H26.5092C26.6504 10.7973 26.765 10.6998 26.765 10.5798V9.99251C26.765 9.44137 26.2381 8.99332 25.59 8.99332C24.9419 8.99332 24.415 9.44137 24.415 9.99251V10.3623H23.2609V9.99251C23.2609 9.44137 22.734 8.99332 22.0859 8.99332C21.4378 8.99332 20.9109 9.44137 20.9109 9.99251V10.5798C20.9109 10.6998 21.0255 10.7973 21.1667 10.7973H22.7494V15.1942H20.9513V14.6222C20.9513 14.617 20.9503 14.6122 20.9498 14.6074C20.9488 14.5996 20.9488 14.5918 20.9467 14.5844C20.9452 14.577 20.9431 14.57 20.9406 14.563C20.9385 14.5565 20.9365 14.5504 20.9334 14.5439C20.9304 14.5369 20.9263 14.5304 20.9227 14.5239C20.9191 14.5178 20.9155 14.5121 20.9114 14.5065C20.9068 14.5004 20.9017 14.4947 20.8966 14.4891C20.8915 14.4839 20.8869 14.4782 20.8812 14.4734C20.8751 14.4678 20.8685 14.463 20.8623 14.4582C20.8562 14.4539 20.8506 14.4495 20.8439 14.4456C20.8362 14.4408 20.8275 14.4369 20.8188 14.4325C20.8142 14.4304 20.8101 14.4278 20.805 14.4256C18.3409 13.4325 16.749 11.2932 16.749 8.97548C16.749 5.65165 19.9293 2.94727 23.838 2.94727C27.7471 2.94727 30.9274 5.65165 30.9274 8.97548Z" fill="#A4D4FF"/>
<path opacity="0.2" d="M23.8066 2.92871C23.9897 2.92871 24.1707 2.9348 24.3502 2.94611C20.6968 3.18362 17.8088 5.78883 17.8088 8.95693C17.8088 11.2746 19.4 13.4139 21.8631 14.407C21.8682 14.4092 21.8723 14.4118 21.8769 14.414C21.8856 14.4183 21.8943 14.4223 21.9014 14.427C21.9086 14.431 21.9142 14.4353 21.9204 14.4397C21.9265 14.4444 21.9331 14.4492 21.9393 14.4549C21.9449 14.4597 21.9495 14.4653 21.9546 14.4705C21.9597 14.4762 21.9648 14.4818 21.9694 14.4879C21.978 14.4998 21.9852 14.5123 21.9909 14.5253C21.9945 14.5319 21.9965 14.538 21.9986 14.5445C22.0006 14.5514 22.0032 14.5584 22.0047 14.5658C22.0068 14.5732 22.0068 14.581 22.0078 14.5889C22.0083 14.5936 22.0093 14.5984 22.0093 14.6036V15.1757H20.9212V14.6036C20.9212 14.5984 20.9202 14.5936 20.9197 14.5889C20.9187 14.581 20.9187 14.5732 20.9166 14.5658C20.9151 14.5584 20.9131 14.5514 20.9105 14.5445C20.9084 14.538 20.9064 14.5319 20.9033 14.5253C20.9003 14.5184 20.8962 14.5119 20.8926 14.5053C20.889 14.4993 20.8854 14.4936 20.8813 14.4879C20.8767 14.4818 20.8716 14.4762 20.8665 14.4705C20.8614 14.4653 20.8568 14.4597 20.8512 14.4549C20.845 14.4492 20.8384 14.4444 20.8323 14.4397C20.8261 14.4353 20.8205 14.431 20.8139 14.427C20.8062 14.4223 20.7975 14.4183 20.7888 14.414C20.7842 14.4118 20.7801 14.4092 20.775 14.407C18.3119 13.4139 16.7207 11.2746 16.7207 8.95693C16.7207 5.6331 19.8996 2.92871 23.8066 2.92871Z" fill="#23130D"/>
<path d="M23.8102 1.42149C23.8779 1.42149 23.9429 1.39855 23.9908 1.35772C24.0387 1.31688 24.0656 1.2615 24.0656 1.20375V0.21774C24.0656 0.159991 24.0387 0.104609 23.9908 0.0637745C23.9429 0.0229404 23.8779 0 23.8102 0C23.7424 0 23.6775 0.0229404 23.6296 0.0637745C23.5817 0.104609 23.5548 0.159991 23.5548 0.21774V1.20375C23.5548 1.2615 23.5817 1.31688 23.6296 1.35772C23.6775 1.39855 23.7424 1.42149 23.8102 1.42149ZM19.1132 2.33491C19.13 2.35968 19.1523 2.38139 19.1789 2.39881C19.2056 2.41622 19.2359 2.42899 19.2683 2.43638C19.3007 2.44378 19.3345 2.44566 19.3678 2.44192C19.4011 2.43817 19.4331 2.42887 19.4622 2.41456C19.5208 2.38567 19.5636 2.3381 19.5812 2.28232C19.5987 2.22654 19.5895 2.1671 19.5557 2.11708L18.9774 1.26333C18.943 1.21411 18.8873 1.17841 18.8223 1.16395C18.7573 1.1495 18.6882 1.15744 18.6301 1.18608C18.5719 1.21472 18.5293 1.26173 18.5115 1.31695C18.4937 1.37217 18.5021 1.43115 18.5349 1.48111L19.1132 2.33491ZM14.9284 4.71493L15.93 5.20811C15.959 5.22243 15.9911 5.23173 16.0243 5.23548C16.0576 5.23923 16.0914 5.23735 16.1238 5.22995C16.1562 5.22256 16.1865 5.20978 16.2132 5.19237C16.2398 5.17496 16.2621 5.15324 16.2788 5.12846C16.2956 5.1037 16.3065 5.07636 16.3109 5.04801C16.3153 5.01966 16.3131 4.99085 16.3044 4.96323C16.2957 4.9356 16.2808 4.90971 16.2603 4.88702C16.2399 4.86433 16.2145 4.84529 16.1854 4.83099L15.1838 4.33781C15.1252 4.30894 15.0555 4.30112 14.99 4.31605C14.9246 4.33099 14.8688 4.36746 14.8349 4.41746C14.801 4.46748 14.7919 4.52691 14.8094 4.58269C14.8269 4.63848 14.8697 4.68604 14.9284 4.71493ZM15.1137 8.83526C15.1137 8.77751 15.0868 8.72213 15.0389 8.6813C14.991 8.64046 14.926 8.61752 14.8583 8.61752H13.7017C13.634 8.61752 13.569 8.64046 13.5211 8.6813C13.4732 8.72213 13.4463 8.77751 13.4463 8.83526C13.4463 8.89301 13.4732 8.94839 13.5211 8.98923C13.569 9.03006 13.634 9.053 13.7017 9.053H14.8583C14.926 9.053 14.991 9.03006 15.0389 8.98923C15.0868 8.94839 15.1137 8.89301 15.1137 8.83526ZM15.9302 12.4625L14.9283 12.955C14.8988 12.969 14.8728 12.988 14.8519 13.0107C14.831 13.0334 14.8156 13.0594 14.8066 13.0872C14.7976 13.115 14.7952 13.144 14.7994 13.1727C14.8037 13.2013 14.8146 13.2289 14.8315 13.2539C14.8485 13.2789 14.871 13.3008 14.8979 13.3183C14.9248 13.3358 14.9556 13.3485 14.9883 13.3558C15.0211 13.3631 15.0552 13.3648 15.0887 13.3607C15.1222 13.3566 15.1544 13.347 15.1835 13.3322L16.1853 12.8397C16.2149 12.8256 16.2408 12.8067 16.2617 12.784C16.2826 12.7613 16.298 12.7353 16.307 12.7075C16.316 12.6797 16.3185 12.6506 16.3142 12.622C16.3099 12.5934 16.299 12.5658 16.2821 12.5408C16.2652 12.5158 16.2426 12.4939 16.2157 12.4764C16.1888 12.4589 16.1581 12.4461 16.1253 12.4389C16.0926 12.4316 16.0585 12.4299 16.025 12.434C15.9915 12.438 15.9592 12.4477 15.9302 12.4625ZM32.6917 12.9552L31.6902 12.4627C31.6611 12.4484 31.629 12.4391 31.5958 12.4354C31.5625 12.4317 31.5287 12.4335 31.4963 12.441C31.4639 12.4484 31.4336 12.4612 31.407 12.4786C31.3804 12.496 31.3581 12.5177 31.3413 12.5425C31.3246 12.5673 31.3137 12.5946 31.3093 12.623C31.3049 12.6513 31.3072 12.6801 31.3159 12.7077C31.3246 12.7353 31.3396 12.7612 31.36 12.7839C31.3804 12.8066 31.4059 12.8256 31.4349 12.8399L32.4365 13.3324C32.4655 13.3467 32.4976 13.356 32.5308 13.3597C32.5641 13.3635 32.5979 13.3616 32.6303 13.3541C32.6627 13.3467 32.6931 13.3339 32.7197 13.3165C32.7463 13.2991 32.7686 13.2774 32.7853 13.2526C32.8021 13.2278 32.8129 13.2005 32.8173 13.1721C32.8217 13.1438 32.8194 13.115 32.8107 13.0874C32.8021 13.0597 32.7871 13.0339 32.7666 13.0112C32.7462 12.9885 32.7207 12.9695 32.6917 12.9552ZM33.9181 8.61774H32.762C32.6943 8.61774 32.6293 8.64068 32.5814 8.68152C32.5335 8.72235 32.5066 8.77773 32.5066 8.83548C32.5066 8.89323 32.5335 8.94861 32.5814 8.98945C32.6293 9.03028 32.6943 9.05322 32.762 9.05322H33.9181C33.9859 9.05322 34.0509 9.03028 34.0988 8.98945C34.1467 8.94861 34.1736 8.89323 34.1736 8.83548C34.1736 8.77773 34.1467 8.72235 34.0988 8.68152C34.0509 8.64068 33.9859 8.61774 33.9181 8.61774ZM31.563 5.23733C31.6063 5.23733 31.6503 5.22793 31.6905 5.20811L32.6918 4.71502C32.7505 4.68613 32.7933 4.63857 32.8108 4.58278C32.8283 4.52699 32.8191 4.46755 32.7853 4.41754C32.7514 4.36753 32.6956 4.33105 32.6301 4.31611C32.5647 4.30117 32.495 4.30901 32.4363 4.33789L31.4349 4.83099C31.4059 4.84529 31.3804 4.86433 31.36 4.88702C31.3396 4.90971 31.3246 4.93561 31.316 4.96323C31.3073 4.99086 31.3051 5.01967 31.3095 5.04802C31.3139 5.07637 31.3248 5.10371 31.3416 5.12846C31.364 5.1616 31.3963 5.18911 31.4351 5.20822C31.474 5.22734 31.5181 5.23738 31.563 5.23733ZM28.1585 2.41469C28.2172 2.44356 28.2869 2.4514 28.3523 2.43646C28.4178 2.42152 28.4736 2.38504 28.5074 2.33504L29.0857 1.48133C29.1181 1.43139 29.1262 1.37262 29.1083 1.31764C29.0904 1.26266 29.0479 1.21587 28.9899 1.18734C28.932 1.1588 28.8632 1.1508 28.7984 1.16505C28.7336 1.1793 28.6779 1.21467 28.6434 1.26354L28.0651 2.11726C28.0312 2.16727 28.022 2.2267 28.0395 2.28248C28.0571 2.33826 28.0999 2.38581 28.1585 2.41469Z" fill="#23130D"/>
<path opacity="0.2" d="M20.9443 15.6221H22.0576V19.2487H20.9443V15.6221Z" fill="#23130D"/>
<path d="M30.2506 9.12268C30.1828 9.12268 30.1177 9.09984 30.0698 9.05917C30.0218 9.01851 29.9949 8.96336 29.9949 8.90585C29.9949 6.01881 27.2249 3.66999 23.8202 3.66999C23.7523 3.66999 23.6873 3.64715 23.6394 3.60648C23.5914 3.56582 23.5645 3.51067 23.5645 3.45316C23.5645 3.39565 23.5914 3.3405 23.6394 3.29984C23.6873 3.25917 23.7523 3.23633 23.8202 3.23633C27.5069 3.23633 30.5063 5.77964 30.5063 8.90585C30.5063 8.96336 30.4793 9.01851 30.4314 9.05917C30.3834 9.09984 30.3184 9.12268 30.2506 9.12268Z" fill="white"/>
<path d="M14.0144 22.797C13.629 22.4788 13.1379 22.2615 12.603 22.1726V17.6187C13.2509 17.808 13.7163 18.3176 13.7163 18.9155V21.2397C13.7163 21.3613 13.775 21.4779 13.8793 21.5639C13.9837 21.6499 14.1253 21.6983 14.2729 21.6983C14.4206 21.6983 14.5622 21.6499 14.6666 21.5639C14.7709 21.4779 14.8296 21.3613 14.8296 21.2397V18.9155C14.8296 17.8082 13.8719 16.8818 12.603 16.6688V15.2469C12.603 13.9826 11.3545 12.9541 9.81982 12.9541C9.43672 12.9544 9.05781 13.0198 8.70677 13.1462C8.35577 13.0193 7.97658 12.9539 7.59326 12.9541C6.05857 12.9541 4.81006 13.9826 4.81006 15.2469V26.3137C4.81006 26.8979 5.10768 27.7379 5.48975 28.2359L11.8608 37.8037V40.1319C11.8608 40.2535 11.9195 40.3702 12.0239 40.4562C12.1283 40.5422 12.2699 40.5905 12.4175 40.5905H22.6902C22.8379 40.5905 22.9795 40.5422 23.0839 40.4562C23.1882 40.3702 23.2469 40.2535 23.2469 40.1319V32.1169C23.2469 31.0117 22.7268 29.9746 21.7826 29.1965L14.0144 22.797ZM11.4897 15.2469V22.1727C11.0861 22.2398 10.7058 22.3802 10.3765 22.5838V15.2469C10.3771 14.7506 10.1811 14.2676 9.81834 13.8713C10.7407 13.8712 11.4897 14.4883 11.4897 15.2469ZM22.1336 39.6733H12.9741V37.6862C12.9741 37.6091 12.9505 37.5333 12.9055 37.4657L6.45705 27.7816C6.45082 27.7722 6.44418 27.763 6.43716 27.754C6.16344 27.4036 5.92334 26.7305 5.92334 26.3137V15.2469C5.92334 14.4883 6.67243 13.8712 7.59326 13.8712C8.51409 13.8712 9.26318 14.4883 9.26318 15.2469V24.4489C9.26318 24.4648 9.26415 24.4805 9.26608 24.496C9.28894 25.057 9.55969 25.6124 10.0783 26.0396L17.8435 32.4366C17.9479 32.5226 18.0894 32.5709 18.237 32.5709C18.3847 32.5709 18.5262 32.5226 18.6306 32.4366C18.735 32.3506 18.7936 32.234 18.7936 32.1124C18.7936 31.9908 18.735 31.8742 18.6306 31.7882L10.8656 25.3911C10.2145 24.8547 10.2145 23.9819 10.8656 23.4455C11.1802 23.1863 11.5902 23.0536 12.0034 23.0449C12.0177 23.0458 12.0319 23.0467 12.0464 23.0467C12.0609 23.0467 12.0751 23.0458 12.0893 23.0449C12.5025 23.0536 12.9125 23.1863 13.2272 23.4455L20.9953 29.845C21.7293 30.4498 22.1336 31.2567 22.1336 32.1169V39.6733ZM40.0269 12.9541C39.6436 12.9539 39.2644 13.0193 38.9134 13.1462C38.5623 13.0198 38.1834 12.9544 37.8003 12.9541C36.2656 12.9541 35.0171 13.9826 35.0171 15.2469V16.6688C33.7482 16.8818 32.7905 17.8082 32.7905 18.9155V21.2397C32.7905 21.4929 33.0397 21.6983 33.3472 21.6983C33.6547 21.6983 33.9038 21.4929 33.9038 21.2397V18.9155C33.9038 18.3177 34.3692 17.808 35.0171 17.6187V22.1726C34.4822 22.2615 33.9911 22.4788 33.6057 22.797L25.8375 29.1965C24.8932 29.9746 24.3732 31.0117 24.3732 32.1168V40.1319C24.3732 40.2535 24.4319 40.3702 24.5363 40.4562C24.6407 40.5422 24.7822 40.5905 24.9299 40.5905H35.2026C35.3503 40.5905 35.4919 40.5422 35.5962 40.4562C35.7006 40.3702 35.7593 40.2535 35.7593 40.1319V37.8037L42.1304 28.2359C42.5124 27.7378 42.8101 26.8979 42.8101 26.3137V15.2469C42.8101 13.9826 41.5616 12.9541 40.0269 12.9541ZM36.1304 15.2469C36.1304 14.4883 36.8795 13.8712 37.8003 13.8712C37.4386 14.2679 37.2432 14.7508 37.2437 15.2469V22.5838C36.9143 22.3803 36.534 22.2398 36.1304 22.1728V15.2469ZM41.6968 26.3137C41.6968 26.7305 41.4567 27.4035 41.183 27.7541C41.1759 27.7631 41.1693 27.7723 41.1631 27.7816L34.7146 37.4657C34.6696 37.5333 34.6459 37.6091 34.6459 37.6862V39.6733H25.4865V32.1169C25.4865 31.2567 25.8907 30.4498 26.6248 29.8451L34.3929 23.4455C34.7077 23.1862 35.118 23.0535 35.5314 23.0449C35.5454 23.0458 35.5594 23.0467 35.5737 23.0467C35.5881 23.0467 35.6021 23.0458 35.6161 23.0449C36.0294 23.0535 36.4397 23.1862 36.7545 23.4455C37.0699 23.7054 37.2437 24.0508 37.2437 24.4183C37.2437 24.7858 37.0699 25.1312 36.7545 25.3911L28.9893 31.7881C28.8857 31.8742 28.8277 31.9907 28.828 32.1119C28.8284 32.2332 28.887 32.3494 28.9911 32.4352C29.0952 32.5209 29.2363 32.5692 29.3835 32.5695C29.5307 32.5697 29.672 32.522 29.7766 32.4366L37.5417 26.0396C38.0514 25.6196 38.339 25.0656 38.3561 24.4739C38.3566 24.4656 38.3569 24.4572 38.3569 24.4488V15.2469C38.3569 14.4883 39.1061 13.8712 40.0269 13.8712C40.9476 13.8712 41.6968 14.4883 41.6968 15.2469V26.3137Z" fill="black"/>
</g>
<defs>
<filter id="filter0_d_85_456" x="0.810059" y="0" width="46" height="48.5908" filterUnits="userSpaceOnUse" color-interpolation-filters="sRGB">
<feFlood flood-opacity="0" result="BackgroundImageFix"/>
<feColorMatrix in="SourceAlpha" type="matrix" values="0 0 0 0 0 0 0 0 0 0 0 0 0 0 0 0 0 0 127 0" result="hardAlpha"/>
<feOffset dy="4"/>
<feGaussianBlur stdDeviation="2"/>
<feComposite in2="hardAlpha" operator="out"/>
<feColorMatrix type="matrix" values="0 0 0 0 0 0 0 0 0 0 0 0 0 0 0 0 0 0 0.25 0"/>
<feBlend mode="normal" in2="BackgroundImageFix" result="effect1_dropShadow_85_456"/>
<feBlend mode="normal" in="SourceGraphic" in2="effect1_dropShadow_85_456" result="shape"/>
</filter>
</defs>
</svg>
